PathFileType	4	(X/Y/Z)	s09c0302.trc
DataRate	CameraRate	NumFrames	NumMarkers	Units	OrigDataRate	OrigDataStartFrame	OrigNumFrames
200	200	4	50	mm	200	1750	2000
Frame#	Time	racr			lacr			c7			jug			rlel			rdr			llel			ldr			s2			lic			ric			lasi			rasi			rpsi			lpsi			rgt			lgt			rth1			rth2			rth3			rth4			rlfc			rmfc			rsh1			rsh2			rsh3			rsh4			rlmal			rmmal			rcal			rtoe			rmt5			lth1			lth2			lth4			lth3			llfc			lmfc			llmal			lmmal			lcal			lmt5			lsh1			lsh2			lsh3			lsh4			ltoe			SBIKE			LBIKE			RBIKE			
		X1	Y1	Z1	X2	Y2	Z2	X3	Y3	Z3	X4	Y4	Z4	X5	Y5	Z5	X6	Y6	Z6	X7	Y7	Z7	X8	Y8	Z8	X9	Y9	Z9	X10	Y10	Z10	X11	Y11	Z11	X12	Y12	Z12	X13	Y13	Z13	X14	Y14	Z14	X15	Y15	Z15	X16	Y16	Z16	X17	Y17	Z17	X18	Y18	Z18	X19	Y19	Z19	X20	Y20	Z20	X21	Y21	Z21	X22	Y22	Z22	X23	Y23	Z23	X24	Y24	Z24	X25	Y25	Z25	X26	Y26	Z26	X27	Y27	Z27	X28	Y28	Z28	X29	Y29	Z29	X30	Y30	Z30	X31	Y31	Z31	X32	Y32	Z32	X33	Y33	Z33	X34	Y34	Z34	X35	Y35	Z35	X36	Y36	Z36	X37	Y37	Z37	X38	Y38	Z38	X39	Y39	Z39	X40	Y40	Z40	X41	Y41	Z41	X42	Y42	Z42	X43	Y43	Z43	X44	Y44	Z44	X45	Y45	Z45	X46	Y46	Z46	X47	Y47	Z47	X48	Y48	Z48	X49	Y49	Z49	X50	Y50	Z50	
1750	8.7500	659.905068	1362.708955	-93.884267	722.161635	1319.067501	-424.182649	676.226816	1386.566819	-262.342397	685.031275	1251.833473	-248.831361	580.392201	1101.784350	-53.284767	716.964206	882.769967	-72.180908	600.488819	1079.989048	-525.661424	719.054631	879.022117	-463.962366	208.698924	1163.481008	-318.603617	371.660713	1119.016858	-434.706273	335.918074	1176.684251	-148.361470	392.364213	1061.877473	-396.888818	374.372611	1112.922011	-152.386559	230.586472	1200.638966	-258.479407	249.056255	1187.989664	-366.196448	315.307134	1058.113332	-93.751111	295.648124	989.606385	-467.105320	433.412683	984.975563	-103.258954	517.856684	963.709517	-113.385970	577.660941	898.066906	-116.433338	532.905698	986.037319	-139.619404	642.127233	817.335820	-143.740131	620.209614	790.845465	-241.799339	558.939478	760.942081	-104.827856	510.303674	685.931295	-106.149640	431.244264	648.409658	-95.104931	526.228761	666.072744	-135.672955	352.989411	574.608278	-82.914760	354.232278	582.510723	-160.373060	262.984618	583.962624	-114.040226	486.341937	441.990522	-135.600860	412.023399	469.496151	-66.795319	319.643524	861.089092	-463.001266	357.310135	785.324643	-454.094006	393.137582	791.985487	-441.676039	350.667770	695.550668	-442.029067	350.234894	600.584608	-423.573589	359.397994	585.581264	-326.261205	155.281722	291.786226	-415.429753	179.827836	293.088595	-347.720636	83.448252	294.286953	-374.300356	205.319168	168.508630	-430.877896	290.137396	518.916413	-443.373758	267.557525	435.940400	-431.915503	204.552219	373.975115	-424.900941	293.482198	425.057912	-403.399842	294.479890	139.240715	-360.655931	-65.191391	851.433668	-242.097203	21.037248	83.546837	-442.461876	21.017220	84.068439	-44.117101	
1751	8.7550	660.316940	1362.245354	-90.465437	724.202306	1320.031470	-420.128866	677.938923	1386.887199	-258.553723	685.220286	1251.949033	-246.140229	580.527172	1101.597487	-51.318121	716.928163	882.638598	-71.462599	602.933877	1081.464150	-523.753897	719.626471	879.116538	-463.586313	209.686609	1166.123966	-316.993233	372.327193	1122.209610	-434.203851	337.358979	1178.021271	-147.063947	392.574270	1064.668282	-398.427709	375.213353	1114.034076	-151.983575	231.757353	1203.096474	-256.628890	250.096683	1190.923551	-364.671578	316.294281	1059.411260	-93.368994	295.660369	992.711338	-466.790512	433.004908	984.846035	-103.163586	517.315095	962.842039	-113.154163	576.506486	896.931112	-116.655137	532.549874	985.291291	-138.965394	641.062792	815.812380	-144.418426	618.983157	789.740751	-242.241193	559.145612	757.746181	-105.420196	512.066928	681.605890	-106.636999	433.955913	642.322630	-95.402594	528.355020	662.220500	-136.303819	357.358296	566.902743	-83.277955	358.197160	574.876473	-160.813256	266.451075	573.424556	-114.308374	495.475482	439.468383	-134.967087	419.830119	464.290111	-66.701580	321.661808	864.001405	-463.118330	360.381332	788.838325	-454.591225	396.209461	795.682020	-442.904662	354.772330	698.823192	-442.780592	354.512388	603.249522	-424.928690	365.700570	587.848909	-328.239195	152.104392	299.515497	-415.470562	176.562941	299.966933	-347.527557	80.609849	304.612783	-373.989175	197.689572	174.467367	-430.760386	292.733402	522.881934	-444.248969	268.079264	440.546455	-432.326499	203.501427	380.271569	-425.086376	293.692760	429.200425	-403.777438	285.385424	142.286492	-361.602188	-65.102953	851.476192	-241.903768	21.042630	83.665819	-442.395512	21.023829	84.071237	-44.096054	
1752	8.7600	660.788351	1362.129062	-87.189008	725.823041	1321.154064	-416.052759	678.889773	1387.098385	-254.339656	686.004981	1252.068967	-242.755547	581.172042	1101.538273	-49.467109	716.911445	882.544607	-70.709265	606.364509	1082.796688	-521.339469	720.158284	879.197413	-463.133501	210.787323	1168.853909	-315.203452	372.910377	1125.334532	-433.583824	338.778034	1179.461074	-145.767009	392.976612	1067.291336	-398.575499	376.085922	1114.988903	-151.434694	233.028923	1205.446691	-254.724535	251.302244	1193.701405	-363.007976	317.054365	1060.326407	-92.823049	295.677559	995.817367	-466.334835	432.406097	984.321514	-102.881304	516.425687	961.380767	-112.664800	574.725189	895.034603	-116.665264	531.832301	983.827874	-137.652411	639.469768	813.378291	-144.872492	617.236354	787.759687	-242.360460	558.893072	753.595323	-105.637198	513.363475	676.360057	-106.880906	436.302773	635.280948	-95.676514	531.043405	657.474399	-136.256532	361.438425	558.487525	-83.401646	361.747251	566.546810	-160.968623	269.764542	562.273850	-114.613581	503.683989	436.371697	-134.869421	427.215526	458.419711	-66.529528	324.056846	867.052904	-463.450184	363.726352	792.267203	-455.024188	399.572177	799.631688	-443.999101	359.473630	702.342343	-443.438035	359.400417	606.213854	-426.192117	372.477635	590.064363	-330.220204	149.314324	307.584126	-415.622881	173.826675	307.010932	-347.367837	78.193568	315.153070	-373.686699	190.387925	180.943399	-430.608251	295.977193	526.950812	-445.013665	269.082173	445.380016	-432.738625	202.870122	386.865308	-425.379352	294.379331	433.424225	-404.197651	276.740375	145.574595	-361.908639	-65.016263	851.549875	-241.697684	21.081295	83.781479	-442.412004	21.054341	84.075835	-44.081726	
1753	8.7650	661.530752	1362.429061	-84.000166	727.651301	1322.045688	-412.081822	680.362072	1387.326618	-250.644722	686.709638	1252.172706	-240.006270	582.200333	1101.528888	-47.806270	717.025124	882.426495	-70.186236	608.891659	1084.256910	-519.527435	720.646894	879.263529	-462.601090	211.831346	1171.450254	-313.335044	373.523422	1128.460374	-432.987066	340.180089	1180.445182	-144.372231	393.309277	1069.825162	-398.620364	377.122553	1115.925396	-150.694990	234.349275	1207.717414	-252.630425	252.343546	1196.419649	-361.059513	317.838360	1061.044913	-91.920225	295.692992	998.928526	-465.852620	431.558017	983.262559	-102.402927	515.306478	959.256100	-111.976207	572.862513	892.154862	-115.879797	530.952526	981.634019	-136.477022	637.416913	810.189753	-145.048220	614.925328	785.058825	-242.358478	558.197438	748.582533	-105.500776	514.326366	670.433934	-106.870578	438.157705	627.815024	-95.543221	532.295845	652.122653	-136.532681	365.130858	549.366550	-83.378169	364.871811	557.602062	-160.987679	273.014425	549.778613	-114.462116	511.268039	432.835776	-134.757369	434.119293	451.957285	-66.288518	326.516449	870.073203	-463.385862	367.351755	795.887879	-455.296123	403.223465	803.722629	-444.902232	364.630898	705.820578	-444.104944	364.863210	609.124116	-427.452390	379.505394	592.581483	-332.238468	146.735171	315.823526	-415.790221	171.290953	314.488493	-347.183348	76.042876	325.833309	-373.410272	183.584740	187.805316	-430.391305	299.600282	531.101428	-445.723385	270.445288	450.346196	-433.117243	202.609516	393.790936	-425.655413	295.315240	437.765201	-404.397104	268.360784	149.172991	-361.955542	-64.908543	851.616003	-241.485846	21.116078	83.893983	-442.411279	21.073366	84.109138	-44.068500	
